<svg width="107" height="90" viewBox="0 0 107 90" fill="none" xmlns="http://www.w3.org/2000/svg">
<path d="M32.3324 89.147C23.5645 89.147 16.0296 85.9047 9.72775 79.4201C3.42585 72.8442 0.274902 65.218 0.274902 56.5415C0.274902 47.865 3.47152 40.3758 9.86475 34.0739C16.258 27.6806 23.9299 24.484 32.8804 24.484C41.9222 24.484 49.5941 27.6806 55.896 34.0739C62.2892 40.3758 65.4859 47.9106 65.4859 56.6785C65.4859 65.355 62.3806 72.9356 56.17 79.4201C49.9594 85.9047 42.4246 89.147 33.5654 89.147H32.3324ZM61.1019 56.9525C61.1019 49.1893 58.3163 42.4764 52.7451 36.8138C47.2651 31.1512 40.6893 28.32 33.0174 28.32C25.3455 28.32 18.6783 31.1969 13.0157 36.9508C7.44445 42.6134 4.65883 49.2806 4.65883 56.9525C4.65883 64.6244 7.44445 71.2916 13.0157 76.9542C18.6783 82.5254 25.3455 85.311 33.0174 85.311C40.7806 85.311 47.4021 82.5254 52.8821 76.9542C58.362 71.2916 61.1019 64.6244 61.1019 56.9525Z" fill="black"/>
<path d="M103.152 0.984406L33.3075 70.8292L10.8332 48.3549L8.02387 51.1641L33.695 76.8352L106.349 4.18118L103.152 0.984406Z" fill="black"/>
</svg>
