<svg width="238" height="119" viewBox="0 0 238 119" fill="none" xmlns="http://www.w3.org/2000/svg">
<path fill-rule="evenodd" clip-rule="evenodd" d="M49.1548 59.1751L24.6762 83.6538C21.5205 80.5184 19.5668 76.1747 19.5668 71.3748C19.5668 61.8152 27.3163 54.0657 36.8759 54.0657C41.6758 54.0657 46.0194 56.0195 49.1548 59.1751Z" fill="#FFF72D"/>
<path fill-rule="evenodd" clip-rule="evenodd" d="M112.75 59.1751L88.2718 83.6538C85.1161 80.5184 83.1624 76.1747 83.1624 71.3748C83.1624 61.8152 90.9119 54.0657 100.471 54.0657C105.271 54.0657 109.615 56.0195 112.75 59.1751Z" fill="#3DE123"/>
<path d="M37.1192 88.8774H36.4532C31.7665 88.8774 27.6719 87.1261 24.1692 83.6234C20.7159 80.0714 18.9892 75.9521 18.9892 71.2654C18.9892 66.5788 20.7159 62.5334 24.1692 59.1294C27.6225 55.6761 31.8899 53.9494 36.9712 53.9494C42.0525 53.9494 46.4185 55.9721 50.0692 60.0174L26.8332 82.9574C30.0399 85.5228 33.1232 86.8054 36.0832 86.8054C39.0432 86.8054 41.6825 86.1394 44.0012 84.8074C46.3692 83.4261 48.3179 81.6008 49.8472 79.3314V83.1054C46.3445 86.9534 42.1019 88.8774 37.1192 88.8774ZM36.3052 56.0214C32.4079 56.0214 28.9299 57.5508 25.8712 60.6094C22.8619 63.6188 21.3572 67.0968 21.3572 71.0434C21.3572 74.9901 22.6645 78.4434 25.2792 81.4034L46.8132 60.0174C43.7545 57.3534 40.2519 56.0214 36.3052 56.0214ZM60.6599 32.4894V85.8434H77.8279V87.9894H58.2179V32.4894H60.6599ZM100.424 88.8774H99.7579C95.0712 88.8774 90.9766 87.1261 87.4739 83.6234C84.0206 80.0714 82.2939 75.9521 82.2939 71.2654C82.2939 66.5788 84.0206 62.5334 87.4739 59.1294C90.9272 55.6761 95.1946 53.9494 100.276 53.9494C105.357 53.9494 109.723 55.9721 113.374 60.0174L90.1379 82.9574C93.3446 85.5228 96.4279 86.8054 99.3879 86.8054C102.348 86.8054 104.987 86.1394 107.306 84.8074C109.674 83.4261 111.623 81.6008 113.152 79.3314V83.1054C109.649 86.9534 105.407 88.8774 100.424 88.8774ZM99.6099 56.0214C95.7126 56.0214 92.2346 57.5508 89.1759 60.6094C86.1666 63.6188 84.6619 67.0968 84.6619 71.0434C84.6619 74.9901 85.9692 78.4434 88.5839 81.4034L110.118 60.0174C107.059 57.3534 103.557 56.0214 99.6099 56.0214ZM153.639 54.6894V87.9894H151.271V79.7014C149.889 82.5134 147.817 84.7334 145.055 86.3614C142.292 87.9894 139.332 88.8034 136.175 88.8034C131.34 88.8034 127.196 87.1014 123.743 83.6974C120.289 80.2441 118.563 76.1248 118.563 71.3394C118.563 66.5541 120.289 62.4594 123.743 59.0554C127.196 55.6021 131.34 53.8754 136.175 53.8754C139.332 53.8754 142.341 54.7141 145.203 56.3914C148.113 58.0688 150.136 60.2888 151.271 63.0514V54.6894H153.639ZM120.931 71.4134C120.931 75.5574 122.435 79.1588 125.445 82.2174C128.503 85.2268 132.105 86.7314 136.249 86.7314C140.442 86.7314 144.019 85.2268 146.979 82.2174C149.939 79.1588 151.419 75.5574 151.419 71.4134C151.419 67.2201 149.914 63.5941 146.905 60.5354C143.945 57.4768 140.393 55.9474 136.249 55.9474C132.105 55.9474 128.503 57.5014 125.445 60.6094C122.435 63.6681 120.931 67.2694 120.931 71.4134ZM182.005 59.2034C179.835 57.0328 177.442 55.9474 174.827 55.9474C172.213 55.9474 169.894 56.9341 167.871 58.9074C165.898 60.8808 164.911 63.1748 164.911 65.7894V87.9894H162.543V54.6894H164.911V59.6474C165.799 57.9701 167.181 56.5888 169.055 55.5034C170.93 54.4181 173.027 53.8754 175.345 53.8754C177.664 53.8754 179.884 54.6648 182.005 56.2434V59.2034ZM190.638 87.9894H188.27V54.6894H190.638V61.4234C193.154 56.3914 197.446 53.8754 203.514 53.8754C207.658 53.8754 211.136 55.3061 213.948 58.1674C216.76 61.0288 218.166 64.5068 218.166 68.6014V87.9894H215.798V68.6014C215.798 65.1974 214.589 62.2374 212.172 59.7214C209.804 57.2054 206.918 55.9474 203.514 55.9474C200.11 55.9474 197.101 57.2054 194.486 59.7214C191.921 62.2374 190.638 65.1974 190.638 68.6014V87.9894Z" fill="black"/>
</svg>
