<svg width="452" height="170" viewBox="0 0 452 170" fill="none" xmlns="http://www.w3.org/2000/svg">
<path fill-rule="evenodd" clip-rule="evenodd" d="M181.079 84.0367L145.991 119.391C141.468 114.862 138.667 108.589 138.667 101.656C138.667 87.8498 149.776 76.6573 163.478 76.6573C170.359 76.6573 176.585 79.4791 181.079 84.0367Z" fill="#FFF72D"/>
<path fill-rule="evenodd" clip-rule="evenodd" d="M272.237 84.0367L237.149 119.391C232.626 114.862 229.826 108.589 229.826 101.656C229.826 87.8498 240.934 76.6573 254.636 76.6573C261.517 76.6573 267.743 79.4791 272.237 84.0367Z" fill="#3DE123"/>
<path d="M161.965 127.293H160.996C154.172 127.293 148.21 124.743 143.109 119.643C138.081 114.471 135.567 108.473 135.567 101.649C135.567 94.825 138.081 88.9348 143.109 83.9784C148.138 78.9501 154.351 76.436 161.75 76.436C169.148 76.436 175.506 79.3811 180.821 85.2713L146.988 118.673C151.657 122.408 156.147 124.276 160.457 124.276C164.767 124.276 168.61 123.306 171.986 121.367C175.434 119.356 178.271 116.698 180.498 113.394V118.889C175.398 124.492 169.22 127.293 161.965 127.293ZM160.78 79.453C155.105 79.453 150.041 81.6798 145.588 86.1333C141.206 90.5151 139.015 95.5792 139.015 101.326C139.015 107.072 140.919 112.101 144.726 116.41L176.08 85.2713C171.627 81.3924 166.527 79.453 160.78 79.453ZM196.242 45.1892V122.875H221.239V126H192.686V45.1892H196.242ZM254.14 127.293H253.17C246.346 127.293 240.384 124.743 235.284 119.643C230.256 114.471 227.742 108.473 227.742 101.649C227.742 94.825 230.256 88.9348 235.284 83.9784C240.313 78.9501 246.526 76.436 253.925 76.436C261.323 76.436 267.68 79.3811 272.996 85.2713L239.163 118.673C243.832 122.408 248.322 124.276 252.632 124.276C256.942 124.276 260.785 123.306 264.161 121.367C267.609 119.356 270.446 116.698 272.673 113.394V118.889C267.573 124.492 261.395 127.293 254.14 127.293ZM252.955 79.453C247.28 79.453 242.216 81.6798 237.762 86.1333C233.381 90.5151 231.19 95.5792 231.19 101.326C231.19 107.072 233.093 112.101 236.901 116.41L268.255 85.2713C263.802 81.3924 258.701 79.453 252.955 79.453ZM331.623 77.5135V126H328.175V113.932C326.164 118.027 323.147 121.259 319.125 123.63C315.102 126 310.792 127.185 306.195 127.185C299.155 127.185 293.122 124.707 288.093 119.751C283.065 114.722 280.551 108.724 280.551 101.757C280.551 94.7891 283.065 88.827 288.093 83.8706C293.122 78.8424 299.155 76.3283 306.195 76.3283C310.792 76.3283 315.174 77.5494 319.34 79.9917C323.578 82.434 326.523 85.6664 328.175 89.689V77.5135H331.623ZM283.999 101.864C283.999 107.898 286.19 113.142 290.572 117.596C295.025 121.977 300.269 124.168 306.303 124.168C312.408 124.168 317.616 121.977 321.926 117.596C326.236 113.142 328.391 107.898 328.391 101.864C328.391 95.7588 326.2 90.4792 321.818 86.0256C317.508 81.572 312.337 79.3452 306.303 79.3452C300.269 79.3452 295.025 81.6079 290.572 86.1333C286.19 90.5869 283.999 95.8306 283.999 101.864ZM372.927 84.0861C369.766 80.9255 366.283 79.3452 362.475 79.3452C358.668 79.3452 355.292 80.7819 352.347 83.6551C349.474 86.5284 348.037 89.8686 348.037 93.6757V126H344.589V77.5135H348.037V84.7326C349.33 82.2903 351.342 80.279 354.071 78.6987C356.801 77.1184 359.854 76.3283 363.23 76.3283C366.606 76.3283 369.838 77.4776 372.927 79.7762V84.0861ZM385.496 126H382.049V77.5135H385.496V87.3185C389.16 79.9917 395.409 76.3283 404.245 76.3283C410.278 76.3283 415.343 78.4114 419.437 82.5776C423.531 86.7439 425.579 91.808 425.579 97.7701V126H422.131V97.7701C422.131 92.8137 420.371 88.5038 416.851 84.8404C413.403 81.1769 409.201 79.3452 404.245 79.3452C399.288 79.3452 394.906 81.1769 391.099 84.8404C387.364 88.5038 385.496 92.8137 385.496 97.7701V126Z" fill="black"/>
<path d="M45.9513 138.886C33.3835 138.886 22.5829 134.203 13.5498 124.838C4.51658 115.34 0 104.326 0 91.7946C0 79.2632 4.58204 68.4466 13.7461 59.3449C22.9102 50.1112 33.9071 45.4944 46.7368 45.4944C59.6975 45.4944 70.6944 50.1112 79.7275 59.3449C88.8916 68.4466 93.4737 79.3291 93.4737 91.9924C93.4737 104.524 89.0226 115.472 80.1203 124.838C71.218 134.203 60.4175 138.886 47.7187 138.886H45.9513ZM87.1897 92.3881C87.1897 81.1759 83.1968 71.4805 75.211 63.3022C67.356 55.1238 57.9301 51.0346 46.9332 51.0346C35.9363 51.0346 26.3795 55.1897 18.2627 63.5C10.2769 71.6784 6.28394 81.3078 6.28394 92.3881C6.28394 103.469 10.2769 113.098 18.2627 121.276C26.3795 129.323 35.9363 133.346 46.9332 133.346C58.061 133.346 67.5524 129.323 75.4073 121.276C83.2623 113.098 87.1897 103.469 87.1897 92.3881Z" fill="black"/>
<path d="M147.465 11.5543L47.3491 112.43L15.1343 79.9707L11.1074 84.0281L47.9045 121.104L152.047 16.1713L147.465 11.5543Z" fill="black"/>
</svg>
